<svg width="30" height="30" viewBox="0 0 30 30" fill="none" xmlns="http://www.w3.org/2000/svg">
<path d="M25.3838 2.24387C23.4837 1.19789 21.4265 0.438713 19.2836 7.76016e-05C19.2648 -0.000631981 19.2461 0.00353182 19.2289 0.0122763C19.2116 0.0210208 19.1961 0.0341336 19.1836 0.0506897C18.9265 0.607419 18.6265 1.33285 18.4265 1.88958C16.1535 1.48469 13.842 1.48469 11.5691 1.88958C11.3691 1.31598 11.0691 0.607419 10.7977 0.0506897C10.7834 0.0169485 10.7405 7.76016e-05 10.6977 7.76016e-05C8.55476 0.438713 6.51184 1.19789 4.5975 2.24387C4.58322 2.24387 4.56893 2.26074 4.55465 2.27761C0.668824 9.14394 -0.402634 15.8247 0.125952 22.438C0.125952 22.4717 0.140238 22.5054 0.16881 22.5223C2.74031 24.7492 5.21181 26.0989 7.65473 26.993C7.69759 27.0099 7.74045 26.993 7.75473 26.9593C8.32618 26.0314 8.84048 25.0529 9.28335 24.0238C9.31192 23.9563 9.28335 23.8888 9.2262 23.872C8.4119 23.5008 7.64044 23.0622 6.88328 22.5561C6.82614 22.5223 6.82614 22.4211 6.869 22.3705C7.02614 22.2355 7.18329 22.0837 7.34044 21.9487C7.36901 21.915 7.41187 21.915 7.44044 21.9318C12.3549 24.5805 17.655 24.5805 22.5123 21.9318C22.5409 21.915 22.5837 21.915 22.6123 21.9487C22.7694 22.1005 22.9266 22.2355 23.0837 22.3873C23.1409 22.438 23.1409 22.5392 23.0694 22.5729C22.3266 23.0959 21.5408 23.5177 20.7265 23.8888C20.6694 23.9057 20.6551 23.9901 20.6694 24.0407C21.1265 25.0698 21.6408 26.0483 22.198 26.9761C22.2408 26.993 22.2837 27.0099 22.3266 26.993C24.7838 26.0989 27.2553 24.7492 29.8268 22.5223C29.8553 22.5054 29.8696 22.4717 29.8696 22.438C30.4982 14.7956 28.8267 8.16544 25.4409 2.27761C25.4266 2.26074 25.4124 2.24387 25.3838 2.24387ZM10.0262 18.4059C8.55476 18.4059 7.32615 16.8032 7.32615 14.8293C7.32615 12.8555 8.52618 11.2528 10.0262 11.2528C11.5406 11.2528 12.7406 12.8723 12.7263 14.8293C12.7263 16.8032 11.5263 18.4059 10.0262 18.4059ZM19.9836 18.4059C18.5122 18.4059 17.2836 16.8032 17.2836 14.8293C17.2836 12.8555 18.4836 11.2528 19.9836 11.2528C21.498 11.2528 22.698 12.8723 22.6837 14.8293C22.6837 16.8032 21.498 18.4059 19.9836 18.4059Z" fill="white"/>
</svg>
